#!OML:ASF I:\Actors\actors\Patient Classification 2\Patient 1\Session 1\actor1.ASF
:FULLY-SPECIFIED
:DEGREES
368
root -0.519405 18.6516 5.69309 -1.70354 9.54038 -1.70243
lowerback 4.4145 3.72635 5.34125
upperback -1.47059 5.37717 2.28184
thorax -3.72718 2.57355 -1.01386
lowerneck -7.63738 -5.42782 -0.857511
upperneck 22.5517 -6.0946 -5.65228
head 8.06878 -3.4717 -2.27853
rclavicle -7.50412e-015 -7.15625e-015
rhumerus 7.46443 21.6071 -63.7364
rradius 144.91
rwrist -13.1911
rhand -13.8761 -15.4119
rfingers 7.12502
rthumb 12.2486 -45.0332
lclavicle -7.50412e-015 -7.15625e-015
lhumerus -48.7578 -4.66339 92.0572
lradius 52.1356
lwrist -1.78817
lhand -9.8095 -25.4053
lfingers 7.12502
lthumb 16.1671 3.94052
rfemur 0 0 0
rtibia 0
rfoot 0 0
rtoes 0
lfemur -5.88324 -6.4613 -12.9198
ltibia 24.334
lfoot -19.238 3.87017
ltoes -56.8715
369
root -0.522825 18.6518 5.68835 -1.68022 9.28888 -1.67731
lowerback 4.49601 3.68381 5.20958
upperback -1.32138 5.31092 2.29294
thorax -3.63369 2.54825 -0.926225
lowerneck -7.57859 -5.5144 -1.1533
upperneck 23.2694 -6.21755 -5.32113
head 8.32113 -3.52456 -2.15349
rclavicle -5.62064e-014 -7.95139e-016
rhumerus 5.9779 22.0177 -64.9484
rradius 145.285
rwrist -13.4798
rhand -14.6222 -16.545
rfingers 7.12502
rthumb 11.5291 -46.2079
lclavicle -5.62064e-014 -7.95139e-016
lhumerus -48.7085 -4.65247 92.0621
lradius 52.1857
lwrist -1.72656
lhand -9.82198 -25.4377
lfingers 7.12502
lthumb 16.1551 3.90905
rfemur 0 0 0
rtibia 0
rfoot 0 0
rtoes 0
lfemur -5.84394 -6.39608 -12.9366
ltibia 24.3064
lfoot -19.277 4.00647
ltoes -56.8452
370
root -0.526228 18.6517 5.68428 -1.64068 9.05137 -1.68688
lowerback 4.6046 3.6449 5.11
upperback -1.19486 5.25507 2.31561
thorax -3.57678 2.52601 -0.847765
lowerneck -7.57208 -5.62892 -1.62913
upperneck 23.8917 -6.37175 -4.91781
head 8.56385 -3.60015 -1.9765
rclavicle -6.10269e-014 -1.98785e-014
rhumerus 3.83544 22.1573 -66.6208
rradius 145.607
rwrist -13.8698
rhand -15.0078 -17.1502
rfingers 7.12502
rthumb 11.1572 -46.8336
lclavicle -6.10269e-014 -1.98785e-014
lhumerus -48.6607 -4.59729 92.0657
lradius 52.2252
lwrist -1.69078
lhand -9.67244 -25.5419
lfingers 7.12502
lthumb 16.2991 3.79306
rfemur 0 0 0
rtibia 0
rfoot 0 0
rtoes 0
lfemur -5.83445 -6.26821 -12.9045
ltibia 24.2753
lfoot -19.261 4.11601
ltoes -56.8147
371
root -0.5294 18.6515 5.68175 -1.59483 8.80913 -1.68242
lowerback 4.69611 3.62012 4.99479
upperback -1.05098 5.21327 2.2977
thorax -3.48883 2.51146 -0.801179
lowerneck -7.66616 -5.77483 -2.08781
upperneck 24.4479 -6.59424 -4.43811
head 8.80726 -3.69897 -1.78441
rclavicle -8.67447e-014 -2.78299e-014
rhumerus 1.14484 21.6924 -68.7597
rradius 145.958
rwrist -15.0944
rhand -14.3738 -17.5171
rfingers 7.12502
rthumb 11.7687 -47.1664
lclavicle -8.67447e-014 -2.78299e-014
lhumerus -48.5524 -4.52021 92.0176
lradius 52.3535
lwrist -1.80509
lhand -9.45855 -25.0684
lfingers 7.12502
lthumb 16.505 4.24955
rfemur 0 0 0
rtibia 0
rfoot 0 0
rtoes 0
lfemur -5.8174 -6.14439 -12.891
ltibia 24.2398
lfoot -19.2657 4.21563
ltoes -56.7303
372
root -0.531898 18.6526 5.6786 -1.48063 8.59447 -1.65325
lowerback 4.72761 3.60133 4.82908
upperback -0.914625 5.17139 2.24445
thorax -3.37589 2.49793 -0.759018
lowerneck -7.81298 -5.95277 -2.5097
upperneck 24.9004 -6.88267 -3.91835
head 9.0279 -3.82049 -1.58978
rclavicle -7.59854e-014 -1.98785e-014
rhumerus -1.67089 20.8533 -70.7881
rradius 146.079
rwrist -15.9655
rhand -13.9579 -18.1546
rfingers 7.12502
rthumb 12.1697 -47.7806
lclavicle -7.59854e-014 -1.98785e-014
lhumerus -48.417 -4.46553 91.9523
lradius 52.6005
lwrist -2.13282
lhand -9.35438 -23.9804
lfingers 7.12502
lthumb 16.6053 5.32922
rfemur 0 0 0
rtibia 0
rfoot 0 0
rtoes 0
lfemur -5.87178 -6.0504 -12.9061
ltibia 24.2009
lfoot -19.2992 4.31725
ltoes -56.7145
373
root -0.533388 18.6557 5.67516 -1.29014 8.42354 -1.6074
lowerback 4.74034 3.57655 4.62786
upperback -0.822678 5.12025 2.17687
thorax -3.30059 2.47872 -0.711849
lowerneck -8.02317 -6.15157 -2.97973
upperneck 25.3098 -7.1838 -3.43907
head 9.25066 -3.95555 -1.40367
rclavicle -2.55687e-014 -2.54444e-014
rhumerus -4.60062 19.7348 -72.6603
rradius 145.889
rwrist -16.1586
rhand -13.6824 -18.6715
rfingers 7.12502
rthumb 12.4354 -48.2815
lclavicle -2.55687e-014 -2.54444e-014
lhumerus -48.2962 -4.41215 91.8734
lradius 52.7405
lwrist -2.31624
lhand -9.32005 -23.3511
lfingers 7.12502
lthumb 16.6383 5.95576
rfemur 0 0 0
rtibia 0
rfoot 0 0
rtoes 0
lfemur -6.00998 -6.10348 -12.9502
ltibia 24.1542
lfoot -19.3545 4.53429
ltoes -56.7855
374
root -0.535303 18.6601 5.67374 -1.09286 8.26997 -1.63259
lowerback 4.79414 3.55389 4.49655
upperback -0.790062 5.08149 2.10071
thorax -3.30266 2.46154 -0.717837
lowerneck -8.24482 -6.36825 -3.4302
upperneck 25.7144 -7.50906 -2.98592
head 9.4766 -4.10178 -1.23289
rclavicle 1.2629e-013 1.90833e-014
rhumerus -7.68017 18.2415 -74.2988
rradius 145.451
rwrist -16.0171
rhand -13.41 -19.3714
rfingers 7.12502
rthumb 12.698 -48.9654
lclavicle 1.2629e-013 1.90833e-014
lhumerus -48.2372 -4.31967 91.7431
lradius 52.7779
lwrist -2.3125
lhand -9.21389 -23.2314
lfingers 7.12502
lthumb 16.7405 6.06679
rfemur 0 0 0
rtibia 0
rfoot 0 0
rtoes 0
lfemur -6.16363 -6.28949 -12.916
ltibia 24.106
lfoot -19.4386 4.77299
ltoes -56.67
375
root -0.537809 18.6644 5.67422 -0.876655 8.11785 -1.69739
lowerback 4.83412 3.54723 4.36053
upperback -0.798461 5.06483 2.02641
thorax -3.33914 2.45427 -0.721384
lowerneck -8.41286 -6.57686 -3.77702
upperneck 26.015 -7.84853 -2.52939
head 9.65476 -4.24335 -1.07443
rclavicle 7.2134e-014 1.19271e-014
rhumerus -10.7488 16.2718 -75.4265
rradius 144.691
rwrist -16.0009
rhand -13.1215 -20.3102
rfingers 7.12502
rthumb 12.9761 -49.8867
lclavicle 7.2134e-014 1.19271e-014
lhumerus -48.2128 -4.20343 91.6006
lradius 52.7963
lwrist -2.3191
lhand -9.17798 -23.1886
lfingers 7.12502
lthumb 16.7751 6.10666
rfemur 0 0 0
rtibia 0
rfoot 0 0
rtoes 0
lfemur -6.34665 -6.42613 -12.8183
ltibia 24.071
lfoot -19.5845 4.87296
ltoes -56.3566
376
root -0.538942 18.6675 5.67736 -0.652605 7.97743 -1.76
lowerback 4.81908 3.54852 4.18281
upperback -0.798771 5.0523 1.94864
thorax -3.33928 2.45084 -0.701604
lowerneck -8.58769 -6.77491 -4.13488
upperneck 26.2371 -8.20728 -1.94245
head 9.81669 -4.37948 -0.870287
rclavicle -5.36408e-014 -1.59028e-014
rhumerus -13.6962 14.0271 -76.0847
rradius 143.522
rwrist -16.1907
rhand -12.6846 -21.3302
rfingers 7.12502
rthumb 13.3972 -50.8794
lclavicle -5.36408e-014 -1.59028e-014
lhumerus -48.1114 -4.09135 91.4473
lradius 52.7602
lwrist -2.30913
lhand -9.17142 -23.2207
lfingers 7.12502
lthumb 16.7814 6.07403
rfemur 0 0 0
rtibia 0
rfoot 0 0
rtoes 0
lfemur -6.54595 -6.43673 -12.7197
ltibia 24.0556
lfoot -19.7095 4.94379
ltoes -56.225
377
root -0.539333 18.6699 5.68347 -0.451367 7.8785 -1.88809
lowerback 4.82298 3.5386 4.0722
upperback -0.816867 5.03046 1.86159
thorax -3.36238 2.44065 -0.729544
lowerneck -8.81907 -6.97791 -4.60704
upperneck 26.5254 -8.60523 -1.15237
head 10.035 -4.52025 -0.587216
rclavicle -1.82727e-014 2.38542e-015
rhumerus -16.6026 11.7491 -76.3401
rradius 141.94
rwrist -16.3796
rhand -12.0497 -22.4328
rfingers 7.12502
rthumb 14.0091 -51.9408
lclavicle -1.82727e-014 2.38542e-015
lhumerus -48.0006 -3.99636 91.2608
lradius 52.7251
lwrist -2.22452
lhand -9.05709 -23.2988
lfingers 7.12502
lthumb 16.8915 5.98655
rfemur 0 0 0
rtibia 0
rfoot 0 0
rtoes 0
lfemur -6.74037 -6.42349 -12.5562
ltibia 24.0462
lfoot -19.7198 5.08488
ltoes -56.3342
378
root -0.54091 18.6722 5.69049 -0.286217 7.82755 -2.01027
lowerback 4.90362 3.51486 3.92017
upperback -0.887904 4.99452 1.78194
thorax -3.48825 2.42169 -0.733686
lowerneck -8.94239 -7.19174 -5.17776
upperneck 26.8278 -9.01917 -0.324287
head 10.253 -4.67238 -0.272741
rclavicle 1.74014e-015 5.96354e-015
rhumerus -19.4522 9.60053 -76.0673
rradius 139.973
rwrist -16.5533
rhand -11.2539 -23.5812
rfingers 7.12502
rthumb 14.7759 -53.0345
lclavicle 1.74014e-015 5.96354e-015
lhumerus -48.0398 -3.8942 91.0924
lradius 52.7735
lwrist -2.07689
lhand -9.04983 -23.3654
lfingers 7.12502
lthumb 16.8985 5.91945
rfemur 0 0 0
rtibia 0
rfoot 0 0
rtoes 0
lfemur -6.90444 -6.48781 -12.4006
ltibia 24.037
lfoot -19.7349 5.19303
ltoes -56.3841
379
root -0.542246 18.6745 5.69713 -0.147651 7.83971 -2.05432
lowerback 5.00485 3.4909 3.67839
upperback -0.958561 4.9526 1.68698
thorax -3.63152 2.40136 -0.704998
lowerneck -8.98506 -7.41884 -5.74679
upperneck 27.0552 -9.44027 0.432993
head 10.4321 -4.83529 0.0215807
rclavicle -1.20022e-014 -3.57812e-015
rhumerus -22.0724 7.62692 -75.2877
rradius 137.642
rwrist -16.7249
rhand -10.4144 -24.8987
rfingers 7.12502
rthumb 15.5845 -54.2909
lclavicle -1.20022e-014 -3.57812e-015
lhumerus -48.0738 -3.74298 90.9268
lradius 52.7862
lwrist -2.04872
lhand -9.11423 -23.4601
lfingers 7.12502
lthumb 16.8365 5.83001
rfemur 0 0 0
rtibia 0
rfoot 0 0
rtoes 0
lfemur -7.04008 -6.65591 -12.3385
ltibia 24.0339
lfoot -19.7979 5.25279
ltoes -56.286
380
root -0.542735 18.6763 5.70276 -0.0204066 7.88313 -2.09227
lowerback 5.08993 3.47223 3.46242
upperback -0.97796 4.91495 1.57675
thorax -3.70873 2.38443 -0.703063
lowerneck -9.15602 -7.64269 -6.2161
upperneck 27.28 -9.84518 1.09119
head 10.63 -4.98949 0.261972
rclavicle 5.79116e-014 2.18663e-014
rhumerus -24.286 5.87871 -74.0441
rradius 134.918
rwrist -16.7401
rhand -9.5747 -26.4354
rfingers 7.12502
rthumb 16.3932 -55.7627
lclavicle 5.79116e-014 2.18663e-014
lhumerus -47.9138 -3.55112 90.7425
lradius 52.7003
lwrist -2.12588
lhand -9.10228 -23.6974
lfingers 7.12502
lthumb 16.848 5.59169
rfemur 0 0 0
rtibia 0
rfoot 0 0
rtoes 0
lfemur -7.16104 -6.89005 -12.2898
ltibia 24.0252
lfoot -19.8546 5.34671
ltoes -56.0952
